<svg xmlns="http://www.w3.org/2000/svg" width="16" height="16" viewBox="0 0 16 16" class="game-participantsstyles__RoleIconStyled-sc-2v6myp-4 gharIp"><g fill="none" fill-rule="nonzero"><path fill="#FFF" d="M3.066.038S7.522 5.123 8.22 9c.934 5.18-.462 6.746-.462 6.746l-4.965-4.733a9.63 9.63 0 0 0-.574-3.424C1.573 5.89 0 4.364 0 4.364S2.088 5.396 3.218 6.49a25.51 25.51 0 0 1 2.296 2.834s.466-1.132-.242-3.89C4.714 3.247 3.066.038 3.066.038z"></path><path fill="#8890B5" d="M10.259 11.866c.015.803.028 1.088.024 1.47l2.436-2.328a9.63 9.63 0 0 1 .577-3.424c.646-1.693 2.22-3.22 2.22-3.22s-2.244.925-3.278 2.097c-.37.396-.695.826-.97 1.283a8.026 8.026 0 0 0-1.01 4.122zM10.491 5.117c.481-2.29 1.958-5.08 1.958-5.08S9.8 3.064 8.266 6.224a10.273 10.273 0 0 1 1.636 3.2s.198-2.441.59-4.306z"></path></g></svg>