<svg xmlns="http://www.w3.org/2000/svg" viewBox="0 0 16 16" class="kill-participationstyles__RoleIcon-jsmhoy-3 QDdwX"><g fill="#8890B5" fill-rule="nonzero"><path fill="#8890B5" d="M8.516 5.562L9.92 13.81 8 15.51l-1.92-1.7 1.404-8.246.52.59zM6.08 0h3.84l.64 1.108L8.007 4.43 5.44 1.108z"></path><path fill="#8890B5" d="M0 2.954h5.151l1.441 1.624-.96 4.062-2.423-1.255 1.24-2.142c-.98 0-1.589-.025-1.827-.074-.358-.074-.8-.312-1.494-.93A6.458 6.458 0 0 1 0 2.953zM16 2.954a6.458 6.458 0 0 1-1.128 1.284c-.694.62-1.136.857-1.494.931-.238.05-.847.074-1.826.074l1.239 2.142-2.423 1.255-.96-4.062 1.44-1.624H16z"></path></g></svg>